<svg xmlns="http://www.w3.org/2000/svg" width="118" height="156.145" viewBox="0 0 118 156.145"><g id="Group_70" data-name="Group 70" transform="translate(-119 -4785.855)"><ellipse id="Ellipse_2" data-name="Ellipse 2" cx="59" cy="13.5" rx="59" ry="13.5" transform="translate(119 4915)" fill="#f5eb00"></ellipse><path id="Path_48" data-name="Path 48" d="M-1046.093,744.535c-1.745-2.025-3.442-3.962-5.1-5.928-7.47-8.833-14.635-17.907-21.364-27.32a229.153,229.153,0,0,1-17.423-27.775,87.594,87.594,0,0,1-6.956-17.067,37,37,0,0,1-1.135-13.132,51.388,51.388,0,0,1,15.726-33.264,51.1,51.1,0,0,1,25.886-13.663,51.128,51.128,0,0,1,17.352-.582,52.207,52.207,0,0,1,44.038,40.708,47.979,47.979,0,0,1,1.085,13.032,40.989,40.989,0,0,1-2.443,10.881,117.354,117.354,0,0,1-10.123,21.009,284.632,284.632,0,0,1-21.827,31.6c-5.476,6.943-11.2,13.687-16.822,20.518C-1045.455,743.857-1045.737,744.142-1046.093,744.535Zm.052-121.774a34.8,34.8,0,0,0-34.822,34.506,34.8,34.8,0,0,0,34.759,35.067,34.8,34.8,0,0,0,34.821-34.65A34.788,34.788,0,0,0-1046.041,622.761Z" transform="translate(1223.921 4184.031)" fill="rgba(0,57,99,0)" stroke="#fff" stroke-miterlimit="10" stroke-width="7"></path></g></svg>