<svg xmlns="http://www.w3.org/2000/svg" width="122.638" height="110.854" viewBox="0 0 122.638 110.854"><g id="Group_68" data-name="Group 68" transform="translate(-1106.208 -1084.274)"><g id="Group_18" data-name="Group 18" transform="translate(1143.676 1117.461)" style="isolation: isolate"><text id="_200_" data-name="200+" transform="translate(0 26)" fill="#fcfcff" font-size="27" font-family="HelveticaNeue-Bold, Helvetica Neue" font-weight="700" style="isolation: isolate"><tspan x="0" y="0">200+</tspan></text></g><g id="Group_24" data-name="Group 24" transform="translate(1106.68 1084.774)"><g id="Group_23" data-name="Group 23" transform="translate(0 0)"><path id="Path_62" data-name="Path 62" d="M2144.021,3219.369c-.753,9.276-4.856,17.289-9.327,25.208a20.7,20.7,0,0,0-2.025,6.487c-.35,1.953-1.212,2.956-3.128,3.273a39.606,39.606,0,0,1-4.873.995,8.589,8.589,0,0,1-4.611-.814,3.876,3.876,0,0,0-4.816-.012c-4.356,2.842-6.037,2.7-9.96-.735-3.678-3.222-7.515-6.36-8.487-11.627-.492,0-1.04-.17-1.257.026-3.1,2.794-5.407,1.158-7.711-1.207a35.139,35.139,0,0,0-4.008-3.485c-4.017-3.03-8.521-4.186-13.209-2.086a144,144,0,0,0-12.927,6.88c-3.878,2.237-7.53,4.867-11.435,7.047a16.891,16.891,0,0,1-6.142,2.04c-4.067.463-5.047-.809-5.093-4.854a9.3,9.3,0,0,0-1.36-4.6c-4.776-7.635-9-15.488-10.734-24.44-1.707-8.8.249-12.84,8.83-14.943,8.3-2.034,13.206-6.77,16.59-14.416,1.967-4.446,5.729-8.1,8.723-12.088,1.425-1.9,3-.918,4.382.028,4.634,3.177,5.367,3.977,7.331-2.923,1.045-3.674,3.066-5.124,6.613-5.142,4.47-.022,8.94-.112,13.41-.123,2.347-.006,2.88,1.283,2.119,3.3a48.719,48.719,0,0,1-2.227,5.474c-1.017,1.939-.845,3.813,1.073,4.491a88.351,88.351,0,0,0,13.679,3.76c.925.167,3-2.183,3.395-3.676,1.036-3.9,1.342-7.993,2.129-11.97a63.654,63.654,0,0,1,1.863-6.2h1.878c1.677,3.165,3.663,6.21,4.948,9.526a84.478,84.478,0,0,1,3.21,11.366,15.7,15.7,0,0,0,5.137,8.555c7.671,6.843,15.436,13.736,18.019,24.383Zm-14.741,32.6c1.778-4.067,3.25-7.584,4.847-11.044,1.872-4.056,4.142-7.952,5.729-12.112,3.288-8.616,2.143-16.606-4.44-23.413-4.055-4.192-8.327-8.176-12.311-12.433a16.285,16.285,0,0,1-3.582-5.613c-1.871-5.509-3.293-11.17-5.007-16.736a34.872,34.872,0,0,0-2.312-4.61c-.36,2.292-.53,3.63-.785,4.951-.786,4.079-1.44,8.194-2.472,12.212-.584,2.27-2.043,4.335-4.725,4.358a27.625,27.625,0,0,1-16.032-4.376c-2.87-1.931-3.264-4.224-1.781-7.337.776-1.628,1.462-3.3,2.433-5.507-3.7,0-6.7.152-9.684-.035-4.752-.3-8.081,1.118-8.759,6.343a4.187,4.187,0,0,1-.453,1.161c-1.621,3.463-3.376,4.072-6.716,2.309a15.711,15.711,0,0,1-2.141-1.289c-1.3-.98-2.4-1.09-3.392.411-2.792,4.235-5.959,8.268-8.325,12.727-3.115,5.873-6.773,10.734-13.782,11.987a25.218,25.218,0,0,0-3.283,1c-6.786,2.2-8.261,4.659-6.945,11.666,1.565,8.339,5.323,15.762,9.906,22.768,1.877,2.87,3.69,5.568,2.247,10.159,2.773-.682,4.971-.8,6.73-1.739,4.129-2.205,8.005-4.876,12.062-7.222a133.594,133.594,0,0,1,13.14-7.166c6.294-2.748,12.242-1.5,17.444,3.006,1.805,1.565,3.549,3.2,5.292,4.778a19,19,0,0,1,2.895-1.425c2.021-.6,4.1-.237,4.531,2,.933,4.878,4.644,7.484,7.849,10.551,2.091,2,4.2,2.368,6.639.375a5.356,5.356,0,0,1,7.167-.208,4.75,4.75,0,0,0,3.119.614A41.368,41.368,0,0,0,2129.281,3251.966Z" transform="translate(-2022.355 -3163.035)" fill="#fcfcff" stroke="#fdfeff" stroke-width="1"></path><path id="Path_63" data-name="Path 63" d="M2181.306,3322.9a7.886,7.886,0,0,1-6.253,7.527c-2.855.648-5.3-.868-6.962-4.407a14.782,14.782,0,0,1-1.112-3.219c-.766-3.678.161-4.441,3.878-3.878a23.987,23.987,0,0,0,5.87-.1C2180.047,3318.485,2181.333,3319.56,2181.306,3322.9Zm-11.672-1.43c.8,4.84,2.6,6.917,5.231,6.252,3.021-.765,4.352-3.238,3.461-6.252Z" transform="translate(-2075.848 -3220.73)" fill="#fcfcff" stroke="#fdfeff" stroke-width="1"></path></g></g></g></svg>