<svg xmlns="http://www.w3.org/2000/svg" width="174.288" height="115.23" viewBox="0 0 174.288 115.23"><g id="Group_67" data-name="Group 67" transform="translate(-210 -1089.77)"><g id="Group_38" data-name="Group 38" transform="translate(210.564 1187.423)" style="isolation: isolate"><text id="_100_" data-name="100%" transform="translate(-0.564 9.577)" fill="#fcfcff" font-size="36" font-family="HelveticaNeue-Bold, Helvetica Neue" font-weight="700" style="isolation: isolate"><tspan x="0" y="0">100%</tspan></text></g><path id="Path_111" data-name="Path 111" d="M237.528,399.681l-4.087-3.263c5.213-3.087,5.45-8.558,7.265-13.126,1.153-2.9-1.263-3.211-3.333-2.716-5.723,1.367-10.484,4.183-13.773,9.3-.819,1.274-2.419,2.029-3.593,3.1-1.921,1.743-3.892,3.451-5.64,5.359a49.866,49.866,0,0,0-2.847,4.2c-1.621,2.183-2.727,4.29-.5,6.794,2.194,2.472,4.861,3.238,7.851,2.077a56.191,56.191,0,0,0,6.227-3.342c1.562,1.353,3.021,3.076,4.867,4.112a65.373,65.373,0,0,0,10.009,4.628c1.725.615,2.686,1.054,2.667,3.072a64.1,64.1,0,0,0,.511,7.605,11.229,11.229,0,0,0,13.181,9.8c1.985-.368,2.81-1.371,1.724-3.3a14.088,14.088,0,0,0-1.99-3.027c-3.568-3.64-2.667-8.009-2.056-12.291A2.864,2.864,0,0,1,255.7,416.8c3.543-1.126,7.15-2.054,11.079-3.147,1.319,6.714,5.955,9.706,12.1,11.976,6.378,2.357,9.558,8.639,13.141,14.079.421.639-.268,2.039-.5,3.073-1.112,4.942-2.516,9.836-3.3,14.828-.94,6,3.645,11.569,9.671,12.412,1.9.266,3.574-.291,2.931-2.369-3.225-10.429,2.425-19.6,4-29.321a6.579,6.579,0,0,0-1.66-6.126c-4.458-5.236-8.664-10.694-12.813-16.182-1.575-2.085-1.429-3.952,1.064-5.785,2.182-1.6,3.747-4.048,6.34-6.975,2.576,7.091,5.468,13.717,7.394,20.613,2.17,7.77,6.377,14.99,12.829,19.957,4.011,3.087,10.64,6.077,15.687,6.486,2.131.172,4.467-.047,4.137-2.771-.266-2.192-3.879-3.814-5.511-5.021a94.645,94.645,0,0,1-7.715-6.124,28.088,28.088,0,0,1-8.691-16.743c-1.846-11.352-5.406-22.1-12.943-31.107-5.9-7.05-13.33-11.1-22.692-11.066-4.115.014-8.255-.1-12.339.3-8.212.807-14.863,4.756-20.324,10.855C244.3,392.32,240.944,395.939,237.528,399.681Zm-2.626-13.91.962.741c-1.654,2.145-3.016,4.628-5.027,6.356-3.159,2.715-3.415,3.093-.463,6.187a35.474,35.474,0,0,0,2.975,2.66c2.767,2.309,5.521,2.291,8.066-.3,2.462-2.5,4.967-4.99,7.172-7.712,5.95-7.344,13.35-11.538,22.951-12.264,12.877-.975,23.785,1.876,31.089,13.517,4.772,7.605,7.242,15.971,9.219,24.648a63.727,63.727,0,0,0,5.47,14.415c1.51,2.982,4.26,5.336,7,8.622-8.121-4.177-12.782-9.965-14.7-18.141-2.135-9.111-5.134-17.924-10.885-25.5-2.137-2.814-3.244-2.48-4.831.589a28.121,28.121,0,0,1-4.768,7.151c-4.712,4.666-5.528,6.631-1.872,12.15,3.591,5.42,8.071,10.245,11.989,15.461a5.925,5.925,0,0,1,1.152,4.076c-1.528,8.64-5.083,16.876-4.968,26.028a6.477,6.477,0,0,1-3.142-7.347c.74-3.79,1.157-7.808,2.775-11.225,2.414-5.1,1.128-8.964-2.31-12.723-.489-.534-.886-1.152-1.337-1.721-3.865-4.867-7.862-9.382-14.355-11.045-4.009-1.027-5.907-4.33-6.165-8.513-.232-3.778-.981-4.172-4.434-2.922-3.8,1.375-7.657,2.6-11.677,3.957-.112-4.968-.112-4.968-4.561-6.57-.682-.245-1.346-.561-2.045-.739-1.726-.438-4-2.388-5.016.265-1.157,3.014,2.056,3.068,3.753,3.571,2.756.816,3.489,1.958,3.369,5.071-.223,5.8-3.318,11.882,1.028,17.536a5.5,5.5,0,0,1-4.266-5.43,92.305,92.305,0,0,0-.775-10.5c-.175-1.089-1.761-2.745-2.753-2.783-6.34-.246-10.866-3.491-14.223-7.343.171-2.091.284-3.463.4-4.834-1.445.345-3.07.381-4.3,1.1-2.5,1.458-4.674,3.469-7.2,4.867-1.005.557-2.577.091-3.891.091l-.21-1.094c3.165-3.663,4.217-9.3,10.3-10.294.854-.14,1.666-1.608,2.172-2.623A14.729,14.729,0,0,1,234.9,385.771Z" transform="matrix(0.985, 0.174, -0.174, 0.985, 116.552, 682.156)" fill="#f4f4f4" stroke="#003963" stroke-width="1"></path></g></svg>