<svg xmlns="http://www.w3.org/2000/svg" width="64.032" height="78.706" viewBox="0 0 64.032 78.706"><path id="Path_57" data-name="Path 57" d="M843.092,2069.853c-.391.288-.707.524-1,.773a123.519,123.519,0,0,0-19.085,19.975c-5.68,7.6-11.067,16.089-11.972,26.554-.856,9.893,2.228,17.86,9.166,23.681,8.092,6.788,17.949,9.067,30.132,6.97a32.46,32.46,0,0,0,12.887-5.063,26.626,26.626,0,0,0,8.411-9.146c4.11-7.419,4.387-16.357.779-25.169C866.069,2092.932,854.454,2081.168,843.092,2069.853Zm11.079,64.063a11.182,11.182,0,0,1-11.162,10.651c-.1,0-.2,0-.3,0a11.132,11.132,0,0,1-11.057-11.051,62.581,62.581,0,0,1,.882-9.229c.2-1.41.416-2.868.589-4.355l.238-2.039,1.709,1.138a19.2,19.2,0,0,0,4.725,2.575,3.216,3.216,0,0,0,3.466-.84,18.234,18.234,0,0,0,3.259-5.18c.42-.862.854-1.753,1.324-2.573l1.214-2.116,1.02,2.216A45.433,45.433,0,0,1,854.171,2133.917Zm14.92-4.426a21.447,21.447,0,0,1-9.558,10.742l-2.112,1.127.27-2.379a53.247,53.247,0,0,0-2.48-24.04,55,55,0,0,0-11.353-18.477q.006.348.011.692c.107,6.669.209,12.969-1.9,19.363l-.441,1.338-1.28-.59c-3.043-1.4-4.6-3.825-6.1-6.168-.271-.423-.545-.851-.83-1.275-5.278,10.948-6.8,19.961-4.946,29l.465,2.266-2.155-.842a17.322,17.322,0,0,1-7.319-6.225,23.45,23.45,0,0,1-4.055-9.374c-1-5.824-.059-11.592,2.964-18.15,4.768-10.35,12.043-19.623,23.591-30.066l.848-.766.844.77a116.146,116.146,0,0,1,17.45,20.045c3.437,5,7.208,11.073,9.113,18.24A23.166,23.166,0,0,1,869.091,2129.491Z" transform="translate(-810.896 -2069.853)" fill="#fff"></path></svg>