<svg xmlns="http://www.w3.org/2000/svg" width="72.744" height="62.391" viewBox="0 0 72.744 62.391"><path id="Path_61" data-name="Path 61" d="M1538.27,3101.176a5.431,5.431,0,0,1,3.158-2.756q33.021-13.381,66.013-26.835c.349-.142.684-.325,1.043-.433a1.807,1.807,0,0,1,2.474,2.228q-4.536,23.189-9.09,46.373-.9,4.592-1.778,9.187c-.635,3.359-3.281,4.516-6.08,2.6-4.264-2.919-8.5-5.875-12.928-8.936l-2.666,2.945c-2.1,2.318-4.136,4.693-6.329,6.917a3.1,3.1,0,0,1-2.441.917c-.563-.146-1.143-1.376-1.2-2.159-.342-5.052-.547-10.114-.784-15.174-.116-2.478-.1-2.473-2.536-3.207-7.715-2.333-15.417-4.708-23.151-6.973a5.526,5.526,0,0,1-3.709-2.752Zm58.153,27.68,9.806-49.957-34.181,33.082Zm5.573-50.882-.139-.25-59.6,24.284a4.636,4.636,0,0,0,.714.4c8.227,2.487,16.451,4.988,24.7,7.4a2.356,2.356,0,0,0,1.909-.534c5.853-5.576,11.649-11.211,17.458-16.832Zm-30.786,37.8c.21,4.024.4,7.63.607,11.668l6.27-6.911Z" transform="translate(-1538.27 -3071.028)" fill="#fcfcff"></path></svg>