<svg xmlns="http://www.w3.org/2000/svg" width="209.333" height="147.831" viewBox="0 0 209.333 147.831"><g id="Group_69" data-name="Group 69" transform="translate(-208.668 -2522)"><rect id="Rectangle_9" data-name="Rectangle 9" width="101" height="103" rx="4" transform="translate(228.668 2522)" fill="#f5eb00"></rect><g id="Group_6" data-name="Group 6" transform="translate(208.668 2528.162)"><path id="Path_14" data-name="Path 14" d="M-578.2,1456.435c-.287.766-.6,1.523-.855,2.3a14,14,0,0,1-13.475,10.05c-2.438.054-4.879.009-7.618.009-1.277,7.717-4.983,13.877-11.788,17.893a23.752,23.752,0,0,1-15.2,2.969c-7.771-.9-18.139-6.8-20.628-20.713h-46.918c-2.8,15.347-14.457,20.852-23.6,20.942-8.966.089-21.047-5.344-24.054-21.088-3.753,0-7.587-.155-11.4.037a9.727,9.727,0,0,1-10.228-10.13c.313-13.14.094-26.292.1-39.439,0-3.435,1.7-5.466,4.58-5.541,2.951-.078,4.957,2.125,4.963,5.566q.028,18.171.007,36.342v3.434c4.215,0,8.233.094,12.238-.093.666-.031,1.491-1.182,1.875-1.99,4.2-8.838,11.087-13.8,20.912-14.234,9.468-.418,17.075,3.525,21.431,11.8,2.14,4.068,4.5,4.712,8.439,4.6,8.738-.24,17.487-.075,26.231-.075h3.154V1358h-94.281c0,3.523.026,6.973-.007,10.422-.032,3.35-1.858,5.351-4.814,5.362-3.023.011-4.711-1.88-4.728-5.327-.013-2.723,0-5.446,0-8.17,0-7.639.976-9.13,7.9-12.073h97.633c6.11,1.94,8.5,6.167,7.943,12.436-.26,2.938-.045,5.92-.045,8.985,16.971,0,33.513-.008,50.054,0,8.231.005,13.937,5.311,14.824,13.5.706,6.518,1.641,13.011,2.477,19.514,1.866,14.49,4.511,28.907,3.783,43.633-.092,1.857.712,3.758,1.1,5.639Zm-71.659,2.47c3.28.244,3.243.227,4.371-2.16,4.139-8.757,11.05-13.575,20.744-14,9.211-.4,16.8,3.293,21.114,11.342,2.41,4.493,5.163,5.677,9.6,5a25.98,25.98,0,0,0,2.78-.3,3.581,3.581,0,0,0,2.989-3.884c-.258-3.982-.649-7.956-1-12.127-1.6,0-3.19.061-4.774-.012-3.23-.15-5.454-2.2-5.446-4.933s2.232-4.769,5.469-4.912c1.655-.073,3.315-.012,5.213-.012a14.366,14.366,0,0,1-.423-2.882c.3-3.566-1.628-3.965-4.647-3.912-10.058.176-20.122.094-30.183.058-8.607-.031-14.523-5.962-14.53-14.5s0-17.093,0-25.638v-6.772h-11.277Zm58.715-42.438c-.052-1.124-.032-1.96-.138-2.779-1.248-9.647-2.533-19.29-3.766-28.94-.523-4.094-2.055-5.519-6.215-5.532-4.506-.014-9.012,0-13.517,0h-14.2c0,11.264-.082,22.213.065,33.159a3.977,3.977,0,0,0,4.22,4.068C-613.635,1416.5-602.571,1416.468-591.143,1416.468Zm-46.445,49.656a13.816,13.816,0,0,0,13.537,14.021,13.94,13.94,0,0,0,14.284-13.908,13.983,13.983,0,0,0-13.766-13.874A13.756,13.756,0,0,0-637.588,1466.124Zm-80.723,14.021a14.054,14.054,0,0,0,14.073-13.827,14.088,14.088,0,0,0-13.956-13.957,14.035,14.035,0,0,0-14.076,13.832A14.05,14.05,0,0,0-718.311,1480.146Z" transform="translate(787.531 -1348.217)" fill="#003963"></path><path id="Path_15" data-name="Path 15" d="M-760.415,1415.838c-7.614,0-15.228.018-22.843-.007-3.672-.012-5.4-1.495-5.464-4.556-.064-3.147,1.864-5.035,5.391-5.043q22.842-.049,45.685,0c3.506.006,5.71,1.918,5.77,4.833s-2.1,4.76-5.7,4.77C-745.187,1415.853-752.8,1415.839-760.415,1415.838Z" transform="translate(798.278 -1373.393)" fill="#003963"></path><path id="Path_16" data-name="Path 16" d="M-779.593,1449.455q-10.289,0-20.579,0c-3.439-.006-5.44-1.739-5.436-4.661,0-2.837,2.16-4.858,5.381-4.864q20.719-.04,41.439,0c3.222.005,5.435,2.008,5.477,4.8.043,2.827-2.106,4.721-5.422,4.727Q-769.163,1449.47-779.593,1449.455Z" transform="translate(805.608 -1388.022)" fill="#003963"></path><path id="Path_17" data-name="Path 17" d="M-700.318,1449.463c-2.885.032-4.641-1.769-4.629-4.751a4.482,4.482,0,0,1,4.408-4.783,4.8,4.8,0,0,1,4.7,4.913A4.257,4.257,0,0,1-700.318,1449.463Z" transform="translate(761.908 -1388.031)" fill="#003963"></path><path id="Path_18" data-name="Path 18" d="M-515.879,1553.156a4.606,4.606,0,0,1-4.677,4.616,4.617,4.617,0,0,1-4.632-4.933,4.79,4.79,0,0,1,5.03-4.628C-517.815,1548.236-515.818,1550.544-515.879,1553.156Z" transform="translate(683.873 -1435.039)" fill="#003963"></path><path id="Path_19" data-name="Path 19" d="M-691.98,1553.046a4.56,4.56,0,0,1,4.887-4.613,4.989,4.989,0,0,1,4.661,5,4.456,4.456,0,0,1-4.634,4.538A4.709,4.709,0,0,1-691.98,1553.046Z" transform="translate(756.28 -1435.135)" fill="#003963"></path></g></g></svg>