<svg xmlns="http://www.w3.org/2000/svg" id="Layer_1" data-name="Layer 1" viewBox="0 0 96.26 145.78"><defs><style>.cls-1{fill:#f5eb00;}.cls-2{fill:#003963;}</style></defs><ellipse id="Ellipse_4" data-name="Ellipse 4" class="cls-1" cx="48.13" cy="133.75" rx="48.13" ry="12.03"></ellipse><path class="cls-2" d="M110.64,48.76A47.76,47.76,0,0,0,70.47,11.58,47.54,47.54,0,0,0,31,24.55,46.84,46.84,0,0,0,16.64,54.86a35.52,35.52,0,0,0,1.11,12.7,75.84,75.84,0,0,0,6,14.76,188.71,188.71,0,0,0,14.3,22.82c5.17,7.23,10.84,14.48,17.34,22.17.92,1.1,1.86,2.18,2.81,3.27L64,137.25l4.57-5.06.34-.36.55-.61,4-4.82c3.14-3.78,6.39-7.68,9.49-11.62A233.13,233.13,0,0,0,100.74,89a99.38,99.38,0,0,0,8.57-17.79,38.53,38.53,0,0,0,2.31-10.27l0-.18A44.45,44.45,0,0,0,110.64,48.76ZM64.12,31.05l0,6a21.72,21.72,0,0,1-.09,43.44h-.15a21.72,21.72,0,0,1,.17-43.44h0v-6Z" transform="translate(-16.34 -11.14)"></path></svg>