<svg xmlns="http://www.w3.org/2000/svg" xmlns:xlink="http://www.w3.org/1999/xlink" id="Layer_1" x="0px" y="0px" viewBox="0 0 96.3 145.8" style="enable-background:new 0 0 96.3 145.8;" xml:space="preserve">
<style type="text/css">
	.st0{fill:#F5EB00;}
</style>
<ellipse id="Ellipse_4" class="st0" cx="48.1" cy="133.8" rx="48.1" ry="12"></ellipse>
<path class="st0" d="M94.3,37.6C90,18,74,3.2,54.1,0.4c-14.4-2-29,2.8-39.5,13c-8.4,8-13.5,18.8-14.4,30.3c-0.4,4.3,0,8.6,1.1,12.7  c1.5,5.1,3.5,10.1,6,14.8c4.2,7.9,9,15.6,14.3,22.8c5.2,7.2,10.8,14.5,17.3,22.2c0.9,1.1,1.9,2.2,2.8,3.3l5.8,6.7l4.6-5.1l0.3-0.4  l0.6-0.6l4-4.8c3.1-3.8,6.4-7.7,9.5-11.6c6.5-8.2,12.4-16.8,17.8-25.8c3.4-5.6,6.3-11.6,8.6-17.8c1.2-3.3,2-6.8,2.3-10.3v-0.2  C95.5,45.6,95.2,41.6,94.3,37.6z M47.8,19.9v6c12,0,21.7,9.8,21.7,21.8c0,12-9.8,21.7-21.8,21.7l0,0h-0.2c-12,0-21.7-9.8-21.6-21.8  s9.8-21.7,21.8-21.6l0,0L47.8,19.9L47.8,19.9z"></path>
</svg>